<svg xmlns="http://www.w3.org/2000/svg" viewBox="0 0 864.09 864"><defs><style>.cls-1{isolation:isolate;}.cls-2{fill:#e6f9ff;stroke-width:20.5px;}.cls-10,.cls-2{stroke:#000100;stroke-miterlimit:10;}.cls-3{fill:#e1523d;}.cls-4{fill:#f1be48;}.cls-5{fill:#ee9041;}.cls-6{fill:#459db9;}.cls-7{fill:#563d82;}.cls-8{fill:#427642;}.cls-8,.cls-9{mix-blend-mode:multiply;}.cls-9{fill:#372819;}.cls-10{fill:none;stroke-width:15.37px;}</style></defs><title>DISC-RGB-Icon</title><g class="cls-1"><g id="Layer_1" data-name="Layer 1"><circle class="cls-2" cx="432.04" cy="430.46" r="412.5" transform="translate(-1.23 1.24) rotate(-0.16)"/><path class="cls-3" d="M355.87,506.85a201.33,201.33,0,0,1,3.31-36.95A200.57,200.57,0,0,1,235,320.69,200.32,200.32,0,0,0,108.31,507.56c.32,110.6,90.23,200,200.83,199.68a199.4,199.4,0,0,0,123.66-43.18A199.9,199.9,0,0,1,355.87,506.85Z"/><path class="cls-4" d="M628.65,319.57A200.57,200.57,0,0,1,505.3,469.49a200.48,200.48,0,0,1-72.51,194.57,199.4,199.4,0,0,0,123.9,42.47c110.6-.32,200-90.23,199.68-200.83A200.32,200.32,0,0,0,628.65,319.57Z"/><path class="cls-5" d="M508.82,506.41a201.32,201.32,0,0,0-3.52-36.93,201,201,0,0,1-146.13.42,200.48,200.48,0,0,0,73.62,194.16A199.9,199.9,0,0,0,508.82,506.41Z"/><path class="cls-6" d="M431.89,349.2a200.53,200.53,0,0,1,196.76-29.64A201.32,201.32,0,0,0,632,282.62c-.32-110.6-90.23-200-200.83-199.68s-200,90.23-199.68,200.83A201.32,201.32,0,0,0,235,320.69,200.53,200.53,0,0,1,431.89,349.2Z"/><path class="cls-7" d="M359.17,469.91a200.17,200.17,0,0,1,72.72-120.7A200.53,200.53,0,0,0,235,320.69,200.57,200.57,0,0,0,359.17,469.91Z"/><path class="cls-8" d="M431.89,349.2A200.17,200.17,0,0,1,505.3,469.49,200.57,200.57,0,0,0,628.65,319.57,200.53,200.53,0,0,0,431.89,349.2Z"/><path class="cls-9" d="M431.89,349.2a200.17,200.17,0,0,0-72.72,120.7,201,201,0,0,0,146.13-.42A200.17,200.17,0,0,0,431.89,349.2Z"/><rect class="cls-10" x="252.59" y="306.93" width="359.49" height="359.49" transform="translate(-217.61 450.11) rotate(-45.16)"/><line class="cls-10" x1="433.43" y1="737.4" x2="433.74" y2="846.03"/></g></g></svg>